<svg xmlns="http://www.w3.org/2000/svg" viewBox="0 0 600 600" class="relative mb-6 left-0 z-2 inline h-15"><path d="M71.6,247.44c7.39.17,11.47.26,16.65,2.18a14.26,14.26,0,0,1,6.58,5c2.94,4,3.94,7.66,4.44,15.88,0,0,1.56,29.27,2,37a19.65,19.65,0,0,0,1.36,6.24c6.68,17,27.88,17.52,35.48,2.62a20.59,20.59,0,0,0,2.24-9.33V284.68a2,2,0,1,0-4,0V307a16.55,16.55,0,0,1-1.81,7.53c-6.06,11.88-22.94,11.26-28.26-2.27a16,16,0,0,1-1.1-5c-.41-7.75-2-37-2-37h0c-.56-9.33-1.86-13.45-5.19-18a18.28,18.28,0,0,0-8.41-6.33c-5.58-2.07-10-2.24-17.93-2.42a2,2,0,0,0-.09,4Z" fill="#2d2d2d" fill-rule="evenodd"></path><path d="M154.87,287.16v25.76a34.53,34.53,0,0,1-3.61,15.39c-6.54,13.13-20.26,18.94-39,15.62A25.92,25.92,0,0,1,100,338.17c-6.65-5.64-10.61-12.68-12.88-21.68a51.68,51.68,0,0,1-1.5-10.05c-.37-7.67-1.25-25.46-1.41-28.83a13.81,13.81,0,0,0-.27-2.12,10.56,10.56,0,0,0-5.31-7.67,2,2,0,0,0-1.89,3.49,6.77,6.77,0,0,1,3.32,5,9.72,9.72,0,0,1,.19,1.52c.17,3.38,1,21.17,1.41,28.83a55,55,0,0,0,1.62,10.83c2.49,9.86,6.87,17.55,14.16,23.73a29.78,29.78,0,0,0,14.12,6.64c20.87,3.69,36-3.15,43.26-17.76a38.51,38.51,0,0,0,4-17.15V287.16a2,2,0,1,0-4,0Z" fill="#2d2d2d" fill-rule="evenodd"></path><path d="M119.09,363.16v29.71a1.57,1.57,0,1,0,3.13,0V363.16a1.57,1.57,0,0,0-3.13,0Z" fill="gray" fill-rule="evenodd"></path><path d="M74.08,402.15c1.32-1.68,4.16-3,8-4.24,6.28-2,15.14-3.33,25-4.11a1.56,1.56,0,1,0-.24-3.11c-10.18.79-19.29,2.22-25.74,4.23-4.64,1.45-8,3.28-9.54,5.31a1.56,1.56,0,0,0,2.46,1.92Zm67.26-8.76c11.57.59,22.36,1.92,30.26,4,5,1.32,8.76,2.9,10.7,4.87a1.57,1.57,0,0,0,2.23-2.2c-2.21-2.24-6.46-4.19-12.13-5.7-8.06-2.14-19.09-3.52-30.91-4.12a1.56,1.56,0,1,0-.15,3.12Z" fill="#2d2d2d" fill-rule="evenodd"></path><path d="M60.8,398.78c11.47,6.93,29.33,10.59,48.29,11.94,28.21,2,58.86-1.06,74.2-5.6,4.08-1.21,7.12-2.55,8.87-3.9s2.35-2.78,2.22-4.13a5.63,5.63,0,0,0-2.5-3.78,29.29,29.29,0,0,0-8.09-3.77c-13-4.3-36-7.37-48.55-8a1.77,1.77,0,1,0-.17,3.54c12.26.59,34.89,3.58,47.61,7.79a26,26,0,0,1,7.06,3.23c.6.46,1.07.83,1.11,1.31,0,.11-.08.19-.16.3a3.47,3.47,0,0,1-.7.67c-1.51,1.17-4.17,2.26-7.7,3.31-15.08,4.46-45.21,7.43-72.95,5.46-18.33-1.3-35.62-4.73-46.71-11.43a1.77,1.77,0,1,0-1.83,3Zm20.57-9.16a112.94,112.94,0,0,1,19-3.29,1.3,1.3,0,1,0-.18-2.6,116.64,116.64,0,0,0-19.49,3.36,1.31,1.31,0,0,0,.65,2.53ZM68,532c17.85,11.8,37.41,14.34,58.45,14.38,23.21,0,51.3-5.17,65.31-19.46a10,10,0,0,0,2.86-7V482.46a2,2,0,0,0-4.06,0s0,28,0,37.41a6,6,0,0,1-1.7,4.17c-13.36,13.63-40.25,18.27-62.4,18.23-20.22,0-39-2.36-56.21-13.7A2,2,0,1,0,68,532Z" fill="#2d2d2d" fill-rule="evenodd"></path><path d="M70.36,528.66a21.3,21.3,0,0,1-4.53-4.36,6,6,0,0,1-1.15-3.45c-.18-13.68-1-78.69-1-78.69a2,2,0,0,0-4.07,0s.84,65,1,78.69a10,10,0,0,0,2,5.81,24.74,24.74,0,0,0,5.34,5.2,2,2,0,0,0,2.45-3.25Zm124.26-57.34V405.45a2,2,0,0,0-4.06,0v65.87a2,2,0,1,0,4.06,0Z" fill="#2d2d2d" fill-rule="evenodd"></path><path d="M60,407.18A12.83,12.83,0,0,1,52.81,403a7.22,7.22,0,0,1-1.44-6.67c.83-3,3.94-6,8.82-8.63,10.13-5.42,28.11-9.65,44.91-10.87a2,2,0,0,1,.3,4.06c-16.19,1.17-33.53,5.17-43.29,10.4-3.63,1.95-6.21,3.92-6.83,6.14a3.62,3.62,0,0,0,1.39,3.75,10,10,0,0,0,5.58,2.22,2,2,0,0,1,1.86,2.15c-2.72,45.06,41.73,72.18,80.48,76.13,22.89,2.33,43.95-3.31,51.79-18.77,5.22-10.3,4.42-24.8-5.31-43.9a2,2,0,1,1,3.62-1.85c10.53,20.69,11,36.44,5.31,47.59-8.48,16.74-31,23.5-55.82,21C104,481.66,58.41,453.43,60,407.18Zm75.53-27.52c22.48,1,43.94,4.89,55.75,10.61,4.46,2.16,7.52,4.42,8.26,7.06a3.64,3.64,0,0,1-1.39,3.75,10,10,0,0,1-5.59,2.22,2,2,0,0,0,.35,4.05,13.42,13.42,0,0,0,9.1-4.45,7.2,7.2,0,0,0,1.44-6.66c-1-3.45-4.58-6.81-10.39-9.63-12.16-5.89-34.23-10-57.35-11a2,2,0,0,0-.18,4.06Zm32.09-189.28h-1.46a1.92,1.92,0,0,1-1.93-1.93v-6.87a1.92,1.92,0,0,1,1.93-1.92h10.14a1.92,1.92,0,0,1,1.93,1.92v25.16a1.93,1.93,0,0,1-1.93,1.93H163.88a1.93,1.93,0,0,1,0-3.86h10.46v-21.3h-6.28v3h1.45a1.93,1.93,0,0,1,1.93,1.93v9.8a1.93,1.93,0,0,1-1.93,1.93h-10.9a1.93,1.93,0,0,1,0-3.86h9Zm-47,14.82h8.22a1.93,1.93,0,0,1,0,3.86H118.69a1.92,1.92,0,0,1-1.93-1.93V175.06a1.92,1.92,0,0,1,1.93-1.93h11.17a1.93,1.93,0,0,1,0,3.86h-9.25Z" fill="#2d2d2d" fill-rule="evenodd"></path><path d="M127.37,196.71H133a1.93,1.93,0,1,1,0,3.86h-7.53a1.92,1.92,0,0,1-1.93-1.93V181.57a1.92,1.92,0,0,1,1.93-1.92h4.41a1.93,1.93,0,1,1,0,3.85h-2.49ZM135.94,228l-7.63-5.8a2,2,0,1,1,2.4-3.16l8.41,6.41a2,2,0,0,1,.78,1.57v9a2,2,0,0,1-4,0v-8Zm20.59.15v16.68a2,2,0,0,1-4,0V227.16a2,2,0,0,1,.78-1.57l8.41-6.41a2,2,0,0,1,2.4,3.15l-7.63,5.81Z" fill="#2d2d2d" fill-rule="evenodd"></path><path d="M132.62,185.46c-1.73,2.23-1.64,4.53-.08,6.89a1.82,1.82,0,1,0,3-2,2.08,2.08,0,0,1-.08-2.64,1.82,1.82,0,1,0-2.88-2.23Zm23.25,2.39a2.08,2.08,0,0,1-.07,2.64,1.82,1.82,0,1,0,3,2c1.56-2.36,1.65-4.66-.08-6.89a1.83,1.83,0,1,0-2.89,2.23Zm-23.16,7c-1.72,2.23-1.64,4.54-.07,6.89a1.81,1.81,0,0,0,2.52.51,1.83,1.83,0,0,0,.52-2.53,2.08,2.08,0,0,1-.08-2.64,1.83,1.83,0,0,0-2.89-2.23Zm23.09,2.35a2.07,2.07,0,0,1-.07,2.64,1.82,1.82,0,0,0,3,2c1.56-2.35,1.65-4.66-.08-6.89a1.83,1.83,0,1,0-2.89,2.23Zm7.55-25.57a1.92,1.92,0,0,0-1.93-1.93H129.87a1.93,1.93,0,0,0-1.93,1.93v10.61a1.93,1.93,0,0,0,1.93,1.93h31.55a1.92,1.92,0,0,0,1.93-1.93Zm-31.55,8.68h27.69v-6.75H131.8Zm-61.53,96a1.94,1.94,0,0,0,1.92-1.94l-.25-40.07A1.94,1.94,0,0,0,70,232.36l-12.85.08a1.94,1.94,0,0,0-1.92,1.94l.25,40.07a1.94,1.94,0,0,0,2,1.92l12.84-.08Zm-11.17-40,.23,36.21,9-.06-.23-36.21Zm106-30.5a2,2,0,0,0-2-2H129.47a2,2,0,0,0-2,2v14.77a2,2,0,0,0,2,2h33.62a2,2,0,0,0,2-2Zm-33.62,12.79h29.66V207.77H131.45Z" fill="#2d2d2d" fill-rule="evenodd"></path><path d="M155.41,141.91v27.63a2,2,0,1,0,4.07,0V141.91a2,2,0,0,0-4.07,0Z" fill="#2d2d2d" fill-rule="evenodd"></path><path d="M142.91,143.84a59.86,59.86,0,0,0,15.71-1.11,2,2,0,1,0-.9-4,55.76,55.76,0,0,1-14.66,1,2,2,0,1,0-.15,4.07ZM27.07,32.18h234.8a1.57,1.57,0,0,0,0-3.13H27.07a1.57,1.57,0,1,0,0,3.13Z" fill="#2d2d2d" fill-rule="evenodd"></path><path d="M277,32.62c-.26,2.42-.58,4.79-1,7.13a2,2,0,1,1-4-.65c.39-2.42.72-4.89,1-7.39a3.35,3.35,0,0,1,2.54-2.91c7.65-1.88,11.84-8.06,12.6-18.25a5.07,5.07,0,0,0-5.05-5.47H140.59a2,2,0,0,1,0-4.07H283.05a9.15,9.15,0,0,1,9.11,9.84C291.24,23,286,30.21,277,32.62Zm-156.1,97.67c-30.37-.69-54.5-9.8-72.08-25.55-17.9-16-29-39-32.93-67.09a2,2,0,0,1,4-.56c3.77,27.07,14.4,49.19,31.62,64.63s41.05,24.15,71,24.53a2,2,0,0,1,2,1.55c.73,3,1.4,8.14,1.51,9a6.85,6.85,0,0,0,2.56,1.59,48.63,48.63,0,0,0,5.91,1.69,2,2,0,0,1,1.49,2v28a2,2,0,0,1-4.06,0V143.6a34.8,34.8,0,0,1-4.88-1.47,10.46,10.46,0,0,1-4.46-3.14,4.56,4.56,0,0,1-.62-1.69c-.28-1.45-.57-4.4-1.07-7Z" fill="#2d2d2d" fill-rule="evenodd"></path><path d="M166.34,135.45c.11-.84.78-6,1.51-9a2,2,0,0,1,2-1.55c30-.38,53.81-9.1,71-24.54s27.86-37.56,31.62-64.62a2,2,0,1,1,4,.56c-3.9,28.11-15,51.06-32.93,67.09C226,119.16,201.84,128.27,171.47,129c-.5,2.61-.79,5.56-1.07,7a4.46,4.46,0,0,1-.62,1.69,10.4,10.4,0,0,1-4.46,3.14,50.32,50.32,0,0,1-6.37,1.84,2,2,0,1,1-1.08-3.92,45.25,45.25,0,0,0,5.91-1.69,6.88,6.88,0,0,0,2.56-1.58ZM13.63,27.87c-5.76-2.64-8.9-8.46-9.55-17.22a5.07,5.07,0,0,1,5-5.45l131.35-.13a2,2,0,0,0,0-4.07L9.11,1.14A9.11,9.11,0,0,0,0,11C.82,21.54,5,28.37,11.93,31.57a2,2,0,0,0,1.7-3.7ZM524.86,495.74c3.49-3,5.22-6.16,5.81-11.62a1.83,1.83,0,1,0-3.63-.39c-.46,4.33-1.79,6.88-4.55,9.24a1.82,1.82,0,1,0,2.37,2.77Zm8.71,5.71c3.49-3,5.23-6.16,5.81-11.63a1.83,1.83,0,1,0-3.63-.39c-.46,4.33-1.78,6.88-4.55,9.24a1.83,1.83,0,0,0,2.37,2.78Zm7.78,5.27c3.48-3,5.22-6.16,5.81-11.62a1.83,1.83,0,1,0-3.63-.39c-.46,4.33-1.79,6.88-4.55,9.23a1.83,1.83,0,1,0,2.37,2.78Zm7.77,5.27c3.49-3,5.23-6.15,5.81-11.62a1.83,1.83,0,1,0-3.63-.39c-.46,4.33-1.78,6.88-4.55,9.24a1.82,1.82,0,1,0,2.37,2.77Zm7.77,5.28c3.49-3,5.23-6.16,5.81-11.63a1.82,1.82,0,0,0-3.62-.38c-.47,4.33-1.79,6.87-4.55,9.23a1.82,1.82,0,0,0,2.36,2.78Z" fill="#2d2d2d" fill-rule="evenodd"></path><path d="M517.34,489.12a71.06,71.06,0,0,0,6.75,3,2,2,0,0,1-1.62,3.72c-3-1.31-6.71-2.78-8-3.82a2.82,2.82,0,0,1-1.24-2.44c.7-7.73,4.48-21.24-7.83-36.08a2,2,0,0,1,3.13-2.59c12.9,15.55,9.75,29.69,8.84,38.18ZM244.52,207.72c4.09,1.57,8.66-1.33,10.07-4.36a5,5,0,0,0,.45-2.56c-.43-4.62-1.1-8.6-3.28-11.75a5.87,5.87,0,0,0-3.89-2.68,4.74,4.74,0,0,0-4,1.19,2,2,0,1,0,2.67,3c.51-.46,1.26-.14,1.91.79,1.81,2.64,2.23,6,2.58,9.85a1,1,0,0,1-.09.52c-.71,1.52-3,3.1-5,2.31a2,2,0,1,0-1.43,3.73Z" fill="#2d2d2d" fill-rule="evenodd"></path><path d="M240.7,190.14a.6.6,0,0,1,.36-.44,1.19,1.19,0,0,1,1.28,0,2.11,2.11,0,0,1,.66,1.42,31.41,31.41,0,0,1-1.41,14.3.59.59,0,0,1-.27.29,5,5,0,0,1-5.67-.33,2,2,0,1,0-2.21,3.32c3.54,2.36,6.14,2.23,9.56.63a4.48,4.48,0,0,0,2.35-2.59,35.3,35.3,0,0,0,1.6-16.19c-.53-3.67-3-5-5.21-5a4.9,4.9,0,0,0-5,4.11,2,2,0,0,0,4,.48Z" fill="#2d2d2d" fill-rule="evenodd"></path><path d="M233.6,189.3a2.16,2.16,0,0,1,2-2,1.12,1.12,0,0,1,1.1.39,1.72,1.72,0,0,1,.12,1.14A60.76,60.76,0,0,1,234.1,201c-1.09,2.82-2.56,5.15-5,6-1.66.56-3.7.43-6.26-.48a2,2,0,1,0-1.35,3.76c3.64,1.3,6.55,1.3,8.9.49,3.53-1.21,5.91-4.31,7.46-8.33s2.28-8.73,2.93-13a5,5,0,0,0-1.93-5.18,6.07,6.07,0,0,0-9.2,4.71,2,2,0,0,0,4,.35Z" fill="#2d2d2d" fill-rule="evenodd"></path><path d="M217.13,201.33c3.83-3.18,5.53-5.38,8.54-12,1-2.23,4.47-2.16,3.8.22-1,3.54-3.2,10.95-7.12,15.37-2.19,2.46-5,3.91-8.5,2.48a2,2,0,0,0-1.5,3.7c5.37,2.18,9.66.21,13-3.53,4.34-4.88,6.87-13,8-16.93a5.18,5.18,0,0,0-1.12-5.25c-2.45-2.56-8.06-2.34-10.16,2.29-2.64,5.84-4.08,7.81-7.45,10.6a2,2,0,0,0,2.55,3.07Zm-82.61,57.92,10.89,9.5a2,2,0,0,1-2.62,3l-10.94-9.54-.06-.06c-3.75-3.58-2.4-9,.23-10.8a2,2,0,0,1,2.29,3.27,2.3,2.3,0,0,0-.78,1.37,3.41,3.41,0,0,0,1,3.25Z" fill="#2d2d2d" fill-rule="evenodd"></path><path d="M134.84,250.54l11.85,10.4a2,2,0,0,1-2.63,3l-11.94-10.47-.13-.12c-4.61-4.87-2.1-10,1.2-11.35a2,2,0,0,1,1.47,3.72c-1.4.55-1.74,2.75.18,4.82Z" fill="#2d2d2d" fill-rule="evenodd"></path><path d="M136.1,242.24l12,10.28a2,2,0,1,1-2.59,3l-12.09-10.32-.08-.07a8.33,8.33,0,0,1-2.64-8.1,5.26,5.26,0,0,1,1.84-2.81,4.59,4.59,0,0,1,5.07-.28,2,2,0,0,1,.31.2L149.53,243a1.5,1.5,0,0,0,.71.3l8,1.23a2,2,0,0,1-.6,3.94l-8-1.22a5.5,5.5,0,0,1-2.53-1.08l-11.4-8.73a.76.76,0,0,0-.64-.08,1,1,0,0,0-.45.69,4.28,4.28,0,0,0,1.49,4.15Z" fill="#2d2d2d" fill-rule="evenodd"></path><path d="M190.13,262.61l-9.39-2.95a4.75,4.75,0,0,1-2.37-1.64l-11-14.13a2,2,0,0,0-.72-.56L154,237.77a2,2,0,0,1,1.61-3.66l12.62,5.57a5.85,5.85,0,0,1,2.25,1.76l11,14.13a.89.89,0,0,0,.41.28l10.18,3.2a3.1,3.1,0,0,1,2.1,3.6c-.92,4.23-4.57,21.1-5.85,27a4.25,4.25,0,0,1-4.8,3.3l-27.24-4.19A9.2,9.2,0,0,1,152.2,287c-7.39-5.57-13.59-10.12-19.13-14.8a6.81,6.81,0,0,1,0-10.85,2,2,0,1,1,2.55,3.07,3,3,0,0,0,0,4.73c5.49,4.63,11.64,9.15,19,14.66a5.29,5.29,0,0,0,2.33,1l27.24,4.2a.25.25,0,0,0,.28-.2l5.68-26.22Z" fill="#2d2d2d" fill-rule="evenodd"></path><path d="M192.56,267.85l73.81,21.55a5.38,5.38,0,0,0,4.62-.78l21.86-15.54a2,2,0,0,0,.47-2.77,2,2,0,0,0-2.76-.46L268.7,285.39a1.43,1.43,0,0,1-1.22.2L193.67,264a2,2,0,0,0-1.11,3.81Zm-5.47,20.08,76.32,30.46a11.64,11.64,0,0,0,5.63.75c17.24-2.08,33-8.07,47.69-13.2a2,2,0,0,0,1.21-2.53,2,2,0,0,0-2.52-1.21c-14.45,5-29.91,11-46.84,13a7.56,7.56,0,0,1-3.7-.49l-76.32-30.46a2,2,0,1,0-1.47,3.68ZM335.4,175.65c5-.13,7.71-.91,12-4.68a2,2,0,1,0-2.64-3c-3.33,3-5.47,3.58-9.41,3.68a2,2,0,0,0,.1,4ZM318,131.19a11.92,11.92,0,0,1,10,.77A2,2,0,0,0,330,128.5a15.88,15.88,0,0,0-13.29-1,2,2,0,0,0,1.32,3.74Zm5.78,13.51a2.81,2.81,0,1,1-2.81,2.81A2.81,2.81,0,0,1,323.79,144.7Zm16.85-85.65c-8.05,14.7,21,54.91,40,62.14,2.95,1.12-2-.63-5.64,2.66-7.86,7.06-56.12-25.3-54.5-46" fill="#2d2d2d" fill-rule="evenodd"></path><path d="M377.89,121.13C364.7,114.6,347.84,94.54,341.17,78c-3.13-7.78-4-14.81-1.45-19.43a1.05,1.05,0,0,1,1.42-.41,1,1,0,0,1,.41,1.41,13.61,13.61,0,0,0-1.09,8.15c.62,5,2.91,10.94,6.22,17C355,99.92,369.76,115.94,381,120.22a5.7,5.7,0,0,1,1.18.54,1,1,0,0,1,.39.94,1.08,1.08,0,0,1-1,1,8.78,8.78,0,0,0-5.84,2c-1.12,1-2.91,1.42-5.23,1.18-3-.31-7-1.71-11.48-3.94-10.18-5.09-22.73-14.49-30.9-24.35-5.59-6.75-9.1-13.74-8.63-19.75a1,1,0,1,1,2.08.16c-.43,5.58,3,12,8.15,18.26,8,9.65,20.27,18.83,30.23,23.82,4.18,2.09,7.93,3.44,10.77,3.73,1.59.16,2.84,0,3.61-.66a9.43,9.43,0,0,1,3.63-2Zm-90.28,74.25,52.89,17.4a2,2,0,0,0,1.24-3.76l-52.9-17.4a2,2,0,1,0-1.23,3.76ZM439.37,100a25.32,25.32,0,0,1,4.35-3.34,23.62,23.62,0,0,1,5-2.25,16.73,16.73,0,0,1,6.69-.48A14.76,14.76,0,0,1,461.68,96a34,34,0,0,1,13.83,16.19c5,12.41,2.28,26.29,2,36.1-.22,8.18,1.44,13.74,7.94,14.94,3.25.6,7.24-.31,11.78.58a16.71,16.71,0,0,1,6.47,2.79,19.56,19.56,0,0,1,7.2,11,19.07,19.07,0,0,1-.91,13.1,21,21,0,0,1-5.17,7,25,25,0,0,1-7.67,4.38,1.7,1.7,0,0,0,1.21,3.18,28.7,28.7,0,0,0,8.73-4.93,24.45,24.45,0,0,0,6.1-8.08,22.72,22.72,0,0,0,1.26-15.59,23.31,23.31,0,0,0-8.58-13.12A20.32,20.32,0,0,0,498,160c-4.55-.92-8.56,0-11.81-.65a5,5,0,0,1-4.09-3.73,23.3,23.3,0,0,1-.63-7.28c.27-10.24,2.87-24.73-2.4-37.65a37.61,37.61,0,0,0-15.4-17.88,18.66,18.66,0,0,0-7.88-2.56,20.12,20.12,0,0,0-8.2.69,27.2,27.2,0,0,0-5.71,2.62,28.55,28.55,0,0,0-4.95,3.85,1.76,1.76,0,1,0,2.44,2.54Z" fill="#2d2d2d" fill-rule="evenodd"></path><path d="M322.7,79.73c1.81-1.44,4.86-3.46,6.8-5.73,4.23-5,7.76-11.49,17.31-17.22a61.58,61.58,0,0,1,34-9c12.57.27,21.94,3.85,28.68,11.24,5.67,6.23,8.35,17.59,9.45,23.45,1,5.48.92,9.91,1.82,12.48a9.15,9.15,0,0,0,3.7,5.1,2,2,0,1,0,2.45-3.25,5.64,5.64,0,0,1-2.31-3.19c-.85-2.44-.69-6.67-1.67-11.88-1.19-6.38-4.26-18.68-10.44-25.45C405,48.1,394.76,44,380.89,43.7a65.41,65.41,0,0,0-36.17,9.6c-10.06,6-13.85,12.85-18.3,18-1.78,2.08-4.6,3.89-6.25,5.2a2,2,0,1,0,2.53,3.18Zm-3.86,90.07H313a3.19,3.19,0,0,1-2.71-4.85c2.48-4,4.44-14.38,3.78-21.07a3.88,3.88,0,0,0-.18-.82c-5.24-14.72-8.46-27.88-7.05-34.78.83-4.1,2.53-8.11,5.49-10.52a2,2,0,1,1,2.56,3.16c-2.27,1.85-3.43,5-4.07,8.17-1.32,6.48,2,18.79,6.9,32.61a7.56,7.56,0,0,1,.39,1.77c.68,6.86-1.2,17.09-3.64,22.27h4.68a3.52,3.52,0,0,1,2.95,1.58c5.65,8.5,13,15.71,21.43,20.31a3.68,3.68,0,0,0,3.17.18c6.41-2.68,11.88-6.66,17.13-10.26a2,2,0,0,1,2.93.7c1.61,2.94,3.34,6.5,4.34,8.76a2,2,0,0,1-3.72,1.64c-.75-1.69-1.92-4.13-3.13-6.46-4.9,3.38-10.06,6.89-16,9.37a7.8,7.8,0,0,1-6.7-.36c-8.89-4.86-16.69-12.43-22.7-21.4Z" fill="#2d2d2d" fill-rule="evenodd"></path><path d="M340.91,116.53c-6,1.16-12.3.83-17.16-2.41-4.07-2.72-7-7.5-8.05-15a2,2,0,0,0-4,.57c1.3,8.93,5.06,14.49,9.94,17.67,5.7,3.73,13,4.22,20,2.8a1.84,1.84,0,0,0-.71-3.62ZM313.54,77.85a18.94,18.94,0,0,0-13.67,11,26.46,26.46,0,0,0-1.6,17.2,1.74,1.74,0,0,0,3.39-.78,22.79,22.79,0,0,1,1.61-14.79,15.15,15.15,0,0,1,11-8.62,2,2,0,1,0-.74-4ZM402.87,173,395,157.73a2,2,0,1,0-3.61,1.86l7.85,15.22a2,2,0,1,0,3.61-1.86Zm-11.6-28.44a20.44,20.44,0,0,0,.72,5,10.32,10.32,0,0,0,1.69,3.36,7.18,7.18,0,0,0,4.46,2.54,8.27,8.27,0,0,0,4.86-.61c4.17-1.93,8.56-8,12.15-15.35,4.37-9,7.74-19.92,8.69-27a1.74,1.74,0,1,0-3.44-.48c-1,6.77-4.33,17.23-8.6,25.82-3.19,6.39-6.79,11.8-10.43,13.43a4.22,4.22,0,0,1-2.53.29,3.16,3.16,0,0,1-2-1.07,6.89,6.89,0,0,1-1.18-2.7,18.41,18.41,0,0,1-.34-3.44,2,2,0,0,0-4.07.17Zm23.85,33.14c-10.44,3.58-36,13.7-47.91,19a24,24,0,0,0-5.72,3.7C336.87,222,314,243.47,291.25,265a4.69,4.69,0,0,0-.62,6.1L324,318.82a4.21,4.21,0,0,0,6,.9l44.71-35.14a5.75,5.75,0,0,1,2.77-1.17l21.74-2.9a2,2,0,1,0-.54-4L377,279.38a9.83,9.83,0,0,0-4.74,2l-44.71,35.14a.12.12,0,0,1-.11,0,.13.13,0,0,1-.1-.06L294,268.76a.63.63,0,0,1,.08-.82c22.69-21.48,45.55-43,70.13-64.48a19.8,19.8,0,0,1,4.72-3.06c11.81-5.3,37.18-15.35,47.55-18.9a2,2,0,0,0-1.32-3.85Z" fill="#2d2d2d" fill-rule="evenodd"></path><path d="M360,199.09l2.44-5.57a.08.08,0,0,1,0,0l47.88-19.62a2,2,0,0,0-1.5-3.67L361,189.82a4,4,0,0,0-2.16,2.11l-2.45,5.56a2,2,0,0,0,3.63,1.6Zm73.25-85.63c-.76,8.18-4.34,16.19-8.19,24.06C421,145.86,416.63,154,414.64,162s-1.65,15.6,3.18,23.16a29.93,29.93,0,0,0,8.6,8.66,29.26,29.26,0,0,0,11.3,4.6A32.64,32.64,0,0,0,451,198a28.17,28.17,0,0,0,12-6.1,1.81,1.81,0,0,0-2.43-2.69,24.35,24.35,0,0,1-10.4,5.22,28.86,28.86,0,0,1-11.8.42,25.61,25.61,0,0,1-9.84-4.06,26.37,26.37,0,0,1-7.49-7.58c-4.18-6.59-4.34-13.32-2.62-20.18,2-7.75,6.26-15.64,10.24-23.71,4.09-8.31,7.84-16.79,8.67-25.43a2,2,0,0,0-4.05-.38Z" fill="#2d2d2d" fill-rule="evenodd"></path><path d="M448,198.31c2.07,12.7,10,20.76,19.24,23.39,9.63,2.74,20.78-.39,28.43-10.23a1.82,1.82,0,1,0-2.86-2.24c-6.67,8.39-16.21,11-24.49,8.67-8-2.28-14.81-9.22-16.71-20.19a1.83,1.83,0,0,0-3.61.6Z" fill="#2d2d2d" fill-rule="evenodd"></path><path d="M429.62,98.53l-3.06,12.12a2.08,2.08,0,1,0,4,1q1.53-6,3.07-12.11a2.09,2.09,0,0,0-4.05-1Z" fill="gray" fill-rule="evenodd"></path><path d="M371.06,129.27c2.84-2.91,5.3-4.64,7.42-5.4a4.76,4.76,0,0,1,4.11.08c2.33,1.36,3.25,4.82,3.19,8.51-.1,5.87-2.91,12.64-9,14a2,2,0,1,0,.84,3.87c7.89-1.72,12-10.18,12.12-17.78.09-5.29-1.81-10-5.15-12-3.52-2-9.14-1.42-16.36,6a2,2,0,0,0,2.83,2.77Z" fill="#2d2d2d" fill-rule="evenodd"></path><path d="M433.21,87.6c-.86-4.54-.9-10.55.38-14.69A8.11,8.11,0,0,1,435,70a2.16,2.16,0,0,1,1.53-.85,2,2,0,0,1,1.93,1.2,7.67,7.67,0,0,1,.69,2.94c.37,5.1-1.82,12.76-5.7,18.88a1.82,1.82,0,1,0,3.08,1.95c5.1-8,7.38-18.51,5.78-23.92-.92-3.1-2.92-4.84-6-4.69-2.31.11-4.15,1.57-5.4,4.06-2.25,4.5-2.51,12.74-1.38,18.73a1.83,1.83,0,1,0,3.59-.68Z" fill="gray" fill-rule="evenodd"></path><path d="M267.65,172.13l51.28,9a2,2,0,1,0,.68-3.9l-51.27-9a2,2,0,1,0-.69,3.9Z" fill="#2d2d2d" fill-rule="evenodd"></path><path d="M207.32,209.37a5.27,5.27,0,0,0,2.69-.24c1.08-.46,1.6-1.48,2.08-2.78.68-1.85,1.14-4.2,1.81-6.89a2,2,0,1,1,3.87,1c-.87,3.47-1.44,6.43-2.45,8.54a7.24,7.24,0,0,1-3.75,3.83c-1.63.69-3.83.85-6.95.13a2,2,0,0,1-1.52-2.23l3.42-23.64a4.76,4.76,0,0,1,1.49-2.83q7.71-7.11,16.23-13.8a7.82,7.82,0,0,1,1.88-1.09c5.63-2.2,13.94-4.12,21.84-5.54a22.48,22.48,0,0,1,4-.36h13.77a3.6,3.6,0,0,1,3.59,3.6v17.48a2,2,0,1,1-4,0V167.44H252a18.24,18.24,0,0,0-3.3.29c-7.63,1.37-15.66,3.2-21.08,5.33a3.43,3.43,0,0,0-.89.51q-8.38,6.59-16,13.59a.87.87,0,0,0-.25.47l-3.15,21.74Zm178.49-19.19c46.82,24.35,66.4,55.22,84.26,75.48,5.66,6.43,14.91,5.9,20.37,1.92,3.36-2.44,5.24-6.29,3.52-10.65-5.42-10.47-11.95-21-20.89-34.57a2,2,0,1,1,3.34-2.2c9,13.75,15.65,24.41,21.13,35h0v0c1.76,3.41,2.71,10.62,3.65,16.7.26,1.71.51,3.32.8,4.68-4.44,3-10.73,5-15.23,6.42a1.24,1.24,0,0,0-.82.76,1.3,1.3,0,0,0,.07,1.12l7,12.44a1.3,1.3,0,0,0,1.52.61,63.85,63.85,0,0,0,15.69-6.7c5.71,9.07,11.95,19.83,15.1,31,3.5,12.42,3.59,18.65,7.08,26,.44.94.85,1.88,1.24,2.83C526,357.39,516,358.92,500.2,357a1.3,1.3,0,0,0-1,.31,1.32,1.32,0,0,0-.44,1v32.93a.11.11,0,0,1-.06.11c-1.78.82-4,1.8-4.81,5.37-.6,2.68.7,7.53,3.86,12.25,3.61,5.39,9.55,10.62,17.31,12.18-7.19,5.89-16.63,12.18-22.25,16C447.78,463,413.63,475,358.51,484a1.3,1.3,0,0,0-1.08,1.49,1.32,1.32,0,0,0,1.5,1.08c55.12-9.05,89.42-21,134.29-46.72a70,70,0,0,1,4.9,8.61C503.79,460,510.24,477.87,510.5,489c.13,5.67-1.48,9.74-4.73,11.3-19,9.1-77.45,33.69-168.46,33.1-35.87-.23-48.05-11.42-55.61-24.69a40.45,40.45,0,0,1-5.52-24.28c.92-9.06,5.31-19.5,16.32-30.61,6.38-5.8,13.34-11.76,21.5-18.28,15.05-12,33-26.46,59-45.54a8.52,8.52,0,0,0,3.19-4.63,7.68,7.68,0,0,1,2.29-3.78,10,10,0,0,1,5-1.92,41.41,41.41,0,0,0,6.32-1.22,8.93,8.93,0,0,0,5.23-4.21,7.5,7.5,0,0,0-.1-6.75l0-.1c-1.38-2.87-2.64-5-3.45-6.88-1-2.35-1.31-4.05.21-6.23,1.15-1.66,2.35-3.08,3.47-4.48l.12-.15,0,0a4.58,4.58,0,0,0-2-7c-10.61-4-15.64-12.75-19.27-23.27-2.52-9.27-3.62-24.36-1-36.77a2,2,0,0,1,1.34-1.49s10.64-3.33,15.38-3c2.24.13,3.53,1.17,3.89,2.37,5.49,18,17.45,32.08,28.91,40.74,7.47,5.65,14.68,9,19.7,9.59,6.72.76,13.83-.19,19.34-2.93a16.65,16.65,0,0,0,7.87-7.38c3.73-7.62,2.65-15.61-.44-23.32-3.24-8.09-8.68-15.89-13.54-22.74-15.66-22-48.38-61.71-82.61-76.39a2,2,0,0,1-1-2.81,2.5,2.5,0,0,1,1.24-1c1.58-.66,9.25-3.52,10.84-4.05a2.29,2.29,0,0,1,1.83,0Zm-12,136c3.8,8.56,9.19,15.44,18.5,18.91a2,2,0,0,1,.87,3c-1.18,1.49-2.44,3-3.67,4.74a7.3,7.3,0,0,0-1,7.31c.76,2.21,2.34,4.81,4.14,8.57l0,0a4.9,4.9,0,0,1,.08,4.35A6.36,6.36,0,0,1,389,376a39.36,39.36,0,0,1-5.9,1.11,12.53,12.53,0,0,0-6.3,2.52,10.25,10.25,0,0,0-3.09,5.06,5.94,5.94,0,0,1-2.22,3.22c-26,19.11-44,33.57-59.09,45.6q-3.13,2.5-6,4.9l-.13-.09c-11.51-7.53-27.56-15.28-41.85-29.44-14.53-14.39-15-32.57-12-42.47,4.83-16,16.85-22.07,30.42-26.7,42.75-14.57,74.76-10.6,90.49-13.48l.5-.08ZM537.24,366.9c.41,7.62.49,15.21-2.58,25.27-3.48,11.42-7.32,15.7-11.74,21.37a42.28,42.28,0,0,1-5.24,5.34c-8.07-.78-14.2-6-17.79-11.39-2.65-4-4-8-3.48-10.22.55-2.44,2.15-3,3.38-3.59a2.75,2.75,0,0,0,1.56-2.47V359.74c15.46,1.72,25.51,0,33.26-6.11a48.74,48.74,0,0,1,2.63,13.27ZM503.09,280c1.67,2.71,3.65,5.76,5.75,9a59,59,0,0,1-14.06,6.1L489.08,285c4.26-1.36,9.55-3.22,13.64-5.78a4.9,4.9,0,0,0,.37.76Z" fill="#2d2d2d" fill-rule="evenodd"></path><path d="M498.3,451.53c.55-.69,1.2-1.5,1.91-2.37a2,2,0,1,0-3.16-2.56L495.13,449a2,2,0,0,0,3.17,2.54Z" fill="#2d2d2d" fill-rule="evenodd"></path><path d="M500.21,449.16c.92-1.14,2-2.4,3.05-3.7a2,2,0,0,0-3.12-2.61c-1.1,1.32-2.15,2.59-3.09,3.75a2,2,0,1,0,3.16,2.56Z" fill="#2d2d2d" fill-rule="evenodd"></path><path d="M503.26,445.46A88.36,88.36,0,0,1,513,435.13c3.95-3.22,9-4.37,13.67-1.26,14.92,10,40.48,42.73,55.06,67.72,6.12,10.48,10.33,19.55,10.8,24.92.16,1.79-.09,3-.87,3.72a2.71,2.71,0,0,1-1.93.52,8.27,8.27,0,0,1-3.38-1c-4-2.15-13.13-10.29-21.26-13.81a2,2,0,1,0-1.62,3.73c8,3.47,17,11.55,21,13.67,3.8,2,7.61,2,9.88,0,1.54-1.33,2.57-3.63,2.26-7.15-.51-5.72-4.83-15.44-11.34-26.6-14.88-25.51-41.08-58.85-56.3-69.06-6.26-4.2-13.17-2.86-18.51,1.5a91.93,91.93,0,0,0-10.27,10.86,2,2,0,0,0,3.12,2.61Z" fill="#2d2d2d" fill-rule="evenodd"></path><path d="M510.69,437c4.28-3.34,8.47-1,13.62,3.25,22.18,18.37,43.34,47,59.45,78.65a23.56,23.56,0,0,1,2.55,6.92c.29,2-.22,3.1-1.28,3.86a1.82,1.82,0,0,0,2.12,3c3.05-2.17,4.59-6.11-.14-15.41-16.35-32.14-37.86-61.15-60.38-79.8-6.8-5.63-12.53-7.72-18.18-3.32a1.82,1.82,0,0,0,2.24,2.88Zm-334-243.44h31a1.83,1.83,0,0,0,0-3.65h-31a1.83,1.83,0,0,0,0,3.65ZM276,189.87c4.48-.23,6.92,2.8,7.17,5.88s-1.7,6.47-6.4,6.79H255.08a1.82,1.82,0,0,1,0-3.64h21.48c2.06-.16,3.08-1.49,3-2.86a2.94,2.94,0,0,0-3.4-2.52H252.28a1.83,1.83,0,0,1,0-3.65Zm-70,9H177a1.82,1.82,0,0,0,0,3.64H206a1.82,1.82,0,1,0,0-3.64Zm-61.59,29.42a69.25,69.25,0,0,0,10.39,0,1.56,1.56,0,0,0-.24-3.12,66.31,66.31,0,0,1-10,0,1.56,1.56,0,0,0-.18,3.12Z" fill="#2d2d2d" fill-rule="evenodd"></path><path d="M105.7,207.45c1.69,6.57,5.74,11.41,11.19,15.23a1.56,1.56,0,1,0,1.79-2.56c-4.82-3.38-8.46-7.63-10-13.44a1.56,1.56,0,0,0-3,.77Zm-5.16,3.9c1.69,6.56,5.74,11.4,11.19,15.22a1.56,1.56,0,0,0,1.79-2.56c-4.82-3.38-8.46-7.63-10-13.44a1.56,1.56,0,0,0-1.9-1.13,1.58,1.58,0,0,0-1.13,1.91Z" fill="gray" fill-rule="evenodd"></path><path d="M85.28,414.45c28.32,4.94,55.3,5.67,81.66.65a1.56,1.56,0,0,0-.59-3.07c-26,5-52.6,4.22-80.53-.66a1.56,1.56,0,1,0-.54,3.08Z" fill="#2d2d2d" fill-rule="evenodd"></path><path d="M112.8,358.38v38a1.57,1.57,0,1,0,3.13,0v-38a1.57,1.57,0,0,0-3.13,0Zm12.74.1v37.9a1.57,1.57,0,1,0,3.13,0v-37.9a1.57,1.57,0,1,0-3.13,0Z" fill="gray" fill-rule="evenodd"></path><path d="M367.08,584.7l11.78,4.94a2,2,0,0,1-1.53,3.66l-11.83-5a3.9,3.9,0,0,1-2.37-3.4c-.13-3.13,2-9.48,5-12.84,1.64-1.8,3.56-2.77,5.49-2.58a2,2,0,0,1-.38,3.94,2,2,0,0,0-1.27.47,8.17,8.17,0,0,0-1.84,2C368.3,578.7,367,582.6,367.08,584.7Z" fill="#2d2d2d" fill-rule="evenodd"></path><path d="M230.71,527a.77.77,0,0,0-.8.84c0,.36.33.66.83.86a2,2,0,1,1-1.42,3.69,5,5,0,0,1-3.08-3A4.72,4.72,0,0,1,231,523H231l18.34,1.77a6,6,0,0,1,4.29,2.42l9.61,12.89a6.82,6.82,0,0,0,3.57,2.48l79.22,22.85a3.43,3.43,0,0,0,2.3-.13l16.89-7.14a8.15,8.15,0,0,1,6.46.05l10.15,4.46a5.68,5.68,0,0,1,2.82,2.71,65.11,65.11,0,0,1,4.12,9.75,3.35,3.35,0,0,1-4.73,3.84l-11.4-5.67a2,2,0,1,1,1.77-3.55l10.11,5a77.7,77.7,0,0,0-3.43-7.66,1.68,1.68,0,0,0-.86-.82l-10.15-4.47a4.21,4.21,0,0,0-3.32,0l-16.89,7.14a7.42,7.42,0,0,1-4.94.29l-79.22-22.86a10.69,10.69,0,0,1-5.64-3.91l-9.61-12.89a2.14,2.14,0,0,0-1.5-.85L230.71,527Z" fill="#2d2d2d" fill-rule="evenodd"></path><path d="M240.79,537.39l-12-5.27a2,2,0,1,1,1.59-3.63l12.08,5.29a3.89,3.89,0,0,1,2.11,2.3c1,2.89-.2,7.9-2.65,11.57-1.74,2.61-4.08,4.48-6.42,4.8a5,5,0,0,1-2.91-.47l-9.61-4.78a78.83,78.83,0,0,0,3.42,7.65,1.74,1.74,0,0,0,.86.83l10.16,4.47a4.21,4.21,0,0,0,3.32,0L257.58,553a7.42,7.42,0,0,1,5-.3l73.25,21.31a2,2,0,1,1-1.11,3.8l-73.25-21.3a3.46,3.46,0,0,0-2.31.13l-16.88,7.14a8.19,8.19,0,0,1-6.46-.05l-10.15-4.46a5.7,5.7,0,0,1-2.83-2.71,66.17,66.17,0,0,1-4.12-9.75,3.36,3.36,0,0,1,4.74-3.84l10.89,5.42a1.07,1.07,0,0,0,.61.1c1.39-.19,2.63-1.52,3.67-3.08a14.81,14.81,0,0,0,2.23-5.45,5.55,5.55,0,0,0,0-2.61Zm101.59,42.74,11.26,14.47a6.85,6.85,0,0,0,4.76,2.61L377,599c3.24.31,5.15-1.59,5.6-3.62s-.48-4.56-3.55-5.63a2,2,0,1,0-1.31,3.74c.66.23,1.09.59,1,1s-.64.6-1.35.53l-18.59-1.75a2.89,2.89,0,0,1-2-1.1L345.5,577.7a2,2,0,1,0-3.12,2.43ZM306.69,254.2l35.72,52a1.3,1.3,0,1,0,2.15-1.47l-35.72-52a1.3,1.3,0,0,0-2.15,1.47Zm17.64-15.79,35.78,53a1.3,1.3,0,0,0,2.16-1.46l-35.79-53a1.3,1.3,0,1,0-2.15,1.45ZM342,220.63l36.89,55a1.3,1.3,0,1,0,2.17-1.45l-36.9-55a1.3,1.3,0,0,0-2.16,1.46Zm17.35-15c30.3,45.67,65.84,100,96.56,147a1.3,1.3,0,1,0,2.18-1.43c-30.72-47-66.26-101.36-96.57-147a1.3,1.3,0,0,0-1.81-.36,1.29,1.29,0,0,0-.36,1.8Zm25.23-4.36c36.45,53,62.53,90.28,98.13,143.25a1.3,1.3,0,0,0,2.16-1.46c-35.6-53-61.68-90.29-98.15-143.26a1.3,1.3,0,1,0-2.14,1.47Zm23.29-18c12.42,15.47,57.54,83.16,68.8,99.32a1.3,1.3,0,0,0,2.14-1.49c-11.27-16.18-56.46-84-68.91-99.46a1.3,1.3,0,0,0-2,1.63ZM463.11,221c14.8,21.88,16.5,28.39,32.5,54.39a1.3,1.3,0,0,0,2.22-1.37c-16-26-17.74-32.57-32.57-54.48a1.3,1.3,0,1,0-2.15,1.46Z" fill="#2d2d2d" fill-rule="evenodd"></path><path d="M398.18,295.52c15.15-14.82,30-30,46.43-41.28,11.75-8.09,28.05-12.39,39.1-16.42a1.3,1.3,0,1,0-.89-2.45c-11.22,4.1-27.75,8.5-39.69,16.72-16.53,11.38-31.51,26.64-46.77,41.56a1.3,1.3,0,0,0,1.82,1.87Zm-23.59-12.34c17.74-15.83,37.28-36.51,58.12-47.48,11.34-6,21.63-10.07,34.4-15.11a1.3,1.3,0,1,0-.95-2.42c-12.88,5.07-23.23,9.21-34.66,15.22-21,11.07-40.76,31.88-58.65,47.85a1.3,1.3,0,1,0,1.74,1.94Zm-56.38,20.14c27.15-24.64,61.62-59.79,93.19-81.28,11.29-7.68,28.29-14.55,39.51-18a1.3,1.3,0,1,0-.75-2.49c-11.43,3.48-28.74,10.49-40.23,18.31-31.66,21.55-66.24,56.79-93.47,81.5a1.3,1.3,0,1,0,1.75,1.93Zm-15.33-20.5c26.58-22.3,56.39-54,88.38-76.27,10.71-7.44,27.29-12.4,33.69-15.31a1.3,1.3,0,1,0-1.08-2.37c-6.48,2.95-23.25,8-34.1,15.54-32,22.28-61.93,54.07-88.57,76.41a1.31,1.31,0,1,0,1.68,2Zm151.92-8.91c-16.11,12.84-31.75,27-47.15,42a1.3,1.3,0,0,1-1.82-1.87c15.49-15,31.22-29.29,47.42-42.2l.15-.1c12.31-7.26,25.82-12.85,40.74-19.43a1.31,1.31,0,0,1,1.05,2.39c-14.79,6.52-28.18,12.05-40.39,19.24Zm13.07,16.26q-21.81,17.4-42.52,37.29a1.31,1.31,0,0,1-1.8-1.89c13.94-13.32,28.21-25.89,42.87-37.57a1.28,1.28,0,0,1,.38-.21l26.54-15.7a1.3,1.3,0,0,1,.87,2.45l-26.34,15.63Zm16.72,13.77c-14.84,11.66-29.7,24.1-44.84,37.79a1.29,1.29,0,0,1-1.84-.09,1.31,1.31,0,0,1,.09-1.84c15.24-13.78,30.2-26.3,45.14-38a1.41,1.41,0,0,1,.34-.19l22,.07a1.3,1.3,0,0,1,1.68.76,1.31,1.31,0,0,1-.76,1.68l-21.77-.14ZM138.09,195.12H153a1.56,1.56,0,0,0,0-3.12H138.09a1.56,1.56,0,1,0,0,3.12Z" fill="#2d2d2d" fill-rule="evenodd"></path></svg>